<svg width="720" height="150" viewBox="0 0 720 150" fill="none" xmlns="http://www.w3.org/2000/svg">
  <rect width="720" height="150" fill="white"/>
  <g fill="#03070A">
    <path d="M26 55H96C113 55 122 64 118 79L114 95C111 109 99 116 82 116H46L41 138H6L26 55ZM55 79L51 95H82L86 79H55Z"/>
    <path d="M135 55H205C221 55 231 64 227 79L225 87C222 98 215 105 203 108L219 138H182L169 111H152L145 138H111L135 55ZM164 79L160 94H190L194 79H164Z"/>
    <path d="M259 55H330C350 55 359 66 354 86L350 106C345 127 331 138 310 138H239C219 138 210 127 215 106L219 86C224 66 238 55 259 55ZM252 83L247 110H314L320 83H252Z"/>
    <path d="M438 55H532L526 83H466L463 96H518L512 123H457L454 138H420L438 55Z"/>
    <path d="M548 55H583L565 138H530L548 55Z"/>
    <path d="M596 55H690L684 83H654L642 138H607L620 83H590L596 55Z"/>
    <path d="M83 18H125L119 43H77L83 18Z"/>
    <path d="M142 18H184L178 43H136L142 18Z"/>
    <path d="M203 18H246L240 43H197L203 18Z"/>
    <path d="M393 55H420L415 83H388L393 55Z"/>
  </g>
  <path d="M370 79H408L401 109H363L370 79Z" fill="#ED1C2E"/>
  <text x="355" y="136" font-family="Arial, Helvetica, sans-serif" font-size="31" font-style="italic" font-weight="700" fill="#03070A">SPORTS NUTRITION</text>
</svg>
